<svg width="1200" height="683" viewBox="0 0 1200 683" fill="none" xmlns="http://www.w3.org/2000/svg">
<path d="M293.394 308.037H205.214V367.358H293.394V308.037Z" fill="url(#paint0_radial_67_98)" fill-opacity="0.06"/>
<path d="M646.112 130.073H557.932V189.395H646.112V130.073Z" fill="url(#paint1_radial_67_98)" fill-opacity="0.06"/>
<path d="M557.932 485.999H469.752V545.32H557.932V485.999Z" fill="url(#paint2_radial_67_98)" fill-opacity="0.06"/>
<path d="M910.651 367.358H822.472V426.678H910.651V367.358Z" fill="url(#paint3_radial_67_98)" fill-opacity="0.06"/>
<path d="M646.112 308.037H557.933V367.358H646.112V308.037Z" fill="url(#paint4_radial_67_98)" fill-opacity="0.06"/>
<path d="M28.8536 -107.21H-59.3262V-47.8886M28.8536 -107.21V-47.8886M28.8536 -107.21H117.033M-59.3262 -47.8886H28.8536M-59.3262 -47.8886V11.4318M28.8536 -47.8886H117.033M28.8536 -47.8886V11.4318M117.033 -107.21V-47.8886M117.033 -107.21H205.213M117.033 -47.8886H205.213M117.033 -47.8886V11.4318M28.8536 11.4318H-59.3262M28.8536 11.4318H117.033M28.8536 11.4318V70.7531M-59.3262 11.4318V70.7531M205.213 -107.21V-47.8886M205.213 -107.21H293.393M205.213 -47.8886H293.393M205.213 -47.8886V11.4318M117.033 11.4318H205.213M117.033 11.4318V70.7531M293.393 -107.21V-47.8886M293.393 -107.21H381.573M293.393 -47.8886H381.573M293.393 -47.8886V11.4318M205.213 11.4318H293.393M205.213 11.4318V70.7531M381.573 -107.21V-47.8886M381.573 -107.21H469.753M381.573 -47.8886H469.753M381.573 -47.8886V11.4318M293.393 11.4318H381.573M293.393 11.4318V70.7531M469.753 -107.21V-47.8886M469.753 -107.21H557.932M469.753 -47.8886H557.932M469.753 -47.8886V11.4318M381.573 11.4318H469.753M381.573 11.4318V70.7531M557.932 -107.21V-47.8886M557.932 -107.21H646.112M557.932 -47.8886H646.112M557.932 -47.8886V11.4318M469.753 11.4318H557.932M469.753 11.4318V70.7531M646.112 -107.21V-47.8886M646.112 -107.21H734.292M646.112 -47.8886H734.292M646.112 -47.8886V11.4318M557.932 11.4318H646.112M557.932 11.4318V70.7531M734.292 -107.21V-47.8886M734.292 -107.21H822.472M734.292 -47.8886H822.472M734.292 -47.8886V11.4318M646.112 11.4318H734.292M646.112 11.4318V70.7531M822.472 -107.21V-47.8886M822.472 -107.21H910.651M822.472 -47.8886H910.651M822.472 -47.8886V11.4318M734.292 11.4318H822.472M734.292 11.4318V70.7531M910.651 -107.21V-47.8886M910.651 -107.21H998.831M910.651 -47.8886H998.831M910.651 -47.8886V11.4318M822.472 11.4318H910.651M822.472 11.4318V70.7531M998.831 -107.21V-47.8886M998.831 -107.21H1087.01M998.831 -47.8886H1087.01M998.831 -47.8886V11.4318M910.651 11.4318H998.831M910.651 11.4318V70.7531M1087.01 -107.21V-47.8886M1087.01 -107.21H1175.19M1087.01 -47.8886H1175.19M1087.01 -47.8886V11.4318M998.831 11.4318H1087.01M998.831 11.4318V70.7531M1175.19 -107.21V-47.8886M1175.19 -107.21H1263.37V-47.8886M1175.19 -47.8886H1263.37M1175.19 -47.8886V11.4318M1087.01 11.4318H1175.19M1087.01 11.4318V70.7531M1263.37 -47.8886V11.4318M1175.19 11.4318H1263.37M1175.19 11.4318V70.7531M1263.37 11.4318V70.7531M28.8536 70.7531H-59.3262M28.8536 70.7531H117.033M28.8536 70.7531V130.074M-59.3262 70.7531V130.074M117.033 70.7531H205.213M117.033 70.7531V130.074M205.213 70.7531H293.393M205.213 70.7531V130.074M293.393 70.7531H381.573M293.393 70.7531V130.074M381.573 70.7531H469.753M381.573 70.7531V130.074M469.753 70.7531H557.932M469.753 70.7531V130.074M557.932 70.7531H646.112M557.932 70.7531V130.074M646.112 70.7531H734.292M646.112 70.7531V130.074M734.292 70.7531H822.472M734.292 70.7531V130.074M822.472 70.7531H910.651M822.472 70.7531V130.074M910.651 70.7531H998.831M910.651 70.7531V130.074M998.831 70.7531H1087.01M998.831 70.7531V130.074M1087.01 70.7531H1175.19M1087.01 70.7531V130.074M1175.19 70.7531H1263.37M1175.19 70.7531V130.074M1263.37 70.7531V130.074M28.8536 130.074H-59.3262M28.8536 130.074H117.033M28.8536 130.074V189.395M-59.3262 130.074V189.395M117.033 130.074H205.213M117.033 130.074V189.395M205.213 130.074H293.393M205.213 130.074V189.395M293.393 130.074H381.573M293.393 130.074V189.395M381.573 130.074H469.753M381.573 130.074V189.395M469.753 130.074H557.932M469.753 130.074V189.395M557.932 130.074H646.112M557.932 130.074V189.395M646.112 130.074H734.292M646.112 130.074V189.395M734.292 130.074H822.472M734.292 130.074V189.395M822.472 130.074H910.651M822.472 130.074V189.395M910.651 130.074H998.831M910.651 130.074V189.395M998.831 130.074H1087.01M998.831 130.074V189.395M1087.01 130.074H1175.19M1087.01 130.074V189.395M1175.19 130.074H1263.37M1175.19 130.074V189.395M1263.37 130.074V189.395M28.8536 189.395H-59.3262M28.8536 189.395H117.033M28.8536 189.395V248.716M-59.3262 189.395V248.716M117.033 189.395H205.213M117.033 189.395V248.716M205.213 189.395H293.393M205.213 189.395V248.716M293.393 189.395H381.573M293.393 189.395V248.716M381.573 189.395H469.753M381.573 189.395V248.716M469.753 189.395H557.932M469.753 189.395V248.716M557.932 189.395H646.112M557.932 189.395V248.716M646.112 189.395H734.292M646.112 189.395V248.716M734.292 189.395H822.472M734.292 189.395V248.716M822.472 189.395H910.651M822.472 189.395V248.716M910.651 189.395H998.831M910.651 189.395V248.716M998.831 189.395H1087.01M998.831 189.395V248.716M1087.01 189.395H1175.19M1087.01 189.395V248.716M1175.19 189.395H1263.37M1175.19 189.395V248.716M1263.37 189.395V248.716M28.8536 248.716H-59.3262M28.8536 248.716H117.033M28.8536 248.716V308.036M-59.3262 248.716V308.036M117.033 248.716H205.213M117.033 248.716V308.036M205.213 248.716H293.393M205.213 248.716V308.036M293.393 248.716H381.573M293.393 248.716V308.036M381.573 248.716H469.753M381.573 248.716V308.036M469.753 248.716H557.932M469.753 248.716V308.036M557.932 248.716H646.112M557.932 248.716V308.036M646.112 248.716H734.292M646.112 248.716V308.036M734.292 248.716H822.472M734.292 248.716V308.036M822.472 248.716H910.651M822.472 248.716V308.036M910.651 248.716H998.831M910.651 248.716V308.036M998.831 248.716H1087.01M998.831 248.716V308.036M1087.01 248.716H1175.19M1087.01 248.716V308.036M1175.19 248.716H1263.37M1175.19 248.716V308.036M1263.37 248.716V308.036M28.8536 308.036H-59.3262M28.8536 308.036H117.033M28.8536 308.036V367.358M-59.3262 308.036V367.358M117.033 308.036H205.213M117.033 308.036V367.358M205.213 308.036H293.393M205.213 308.036V367.358M293.393 308.036H381.573M293.393 308.036V367.358M381.573 308.036H469.753M381.573 308.036V367.358M469.753 308.036H557.932M469.753 308.036V367.358M557.932 308.036H646.112M557.932 308.036V367.358M646.112 308.036H734.292M646.112 308.036V367.358M734.292 308.036H822.472M734.292 308.036V367.358M822.472 308.036H910.651M822.472 308.036V367.358M910.651 308.036H998.831M910.651 308.036V367.358M998.831 308.036H1087.01M998.831 308.036V367.358M1087.01 308.036H1175.19M1087.01 308.036V367.358M1175.19 308.036H1263.37M1175.19 308.036V367.358M1263.37 308.036V367.358M28.8536 367.358H-59.3262M28.8536 367.358H117.033M28.8536 367.358V426.678M-59.3262 367.358V426.678M117.033 367.358H205.213M117.033 367.358V426.678M205.213 367.358H293.393M205.213 367.358V426.678M293.393 367.358H381.573M293.393 367.358V426.678M381.573 367.358H469.753M381.573 367.358V426.678M469.753 367.358H557.932M469.753 367.358V426.678M557.932 367.358H646.112M557.932 367.358V426.678M646.112 367.358H734.292M646.112 367.358V426.678M734.292 367.358H822.472M734.292 367.358V426.678M822.472 367.358H910.651M822.472 367.358V426.678M910.651 367.358H998.831M910.651 367.358V426.678M998.831 367.358H1087.01M998.831 367.358V426.678M1087.01 367.358H1175.19M1087.01 367.358V426.678M1175.19 367.358H1263.37M1175.19 367.358V426.678M1263.37 367.358V426.678M28.8536 426.678H-59.3262M28.8536 426.678H117.033M28.8536 426.678V485.999M-59.3262 426.678V485.999M117.033 426.678H205.213M117.033 426.678V485.999M205.213 426.678H293.393M205.213 426.678V485.999M293.393 426.678H381.573M293.393 426.678V485.999M381.573 426.678H469.753M381.573 426.678V485.999M469.753 426.678H557.932M469.753 426.678V485.999M557.932 426.678H646.112M557.932 426.678V485.999M646.112 426.678H734.292M646.112 426.678V485.999M734.292 426.678H822.472M734.292 426.678V485.999M822.472 426.678H910.651M822.472 426.678V485.999M910.651 426.678H998.831M910.651 426.678V485.999M998.831 426.678H1087.01M998.831 426.678V485.999M1087.01 426.678H1175.19M1087.01 426.678V485.999M1175.19 426.678H1263.37M1175.19 426.678V485.999M1263.37 426.678V485.999M28.8536 485.999H-59.3262M28.8536 485.999H117.033M28.8536 485.999V545.321M-59.3262 485.999V545.321M117.033 485.999H205.213M117.033 485.999V545.321M205.213 485.999H293.393M205.213 485.999V545.321M293.393 485.999H381.573M293.393 485.999V545.321M381.573 485.999H469.753M381.573 485.999V545.321M469.753 485.999H557.932M469.753 485.999V545.321M557.932 485.999H646.112M557.932 485.999V545.321M646.112 485.999H734.292M646.112 485.999V545.321M734.292 485.999H822.472M734.292 485.999V545.321M822.472 485.999H910.651M822.472 485.999V545.321M910.651 485.999H998.831M910.651 485.999V545.321M998.831 485.999H1087.01M998.831 485.999V545.321M1087.01 485.999H1175.19M1087.01 485.999V545.321M1175.19 485.999H1263.37M1175.19 485.999V545.321M1263.37 485.999V545.321M28.8536 545.321H-59.3262M28.8536 545.321H117.033M28.8536 545.321V604.641M-59.3262 545.321V604.641M117.033 545.321H205.213M117.033 545.321V604.641M205.213 545.321H293.393M205.213 545.321V604.641M293.393 545.321H381.573M293.393 545.321V604.641M381.573 545.321H469.753M381.573 545.321V604.641M469.753 545.321H557.932M469.753 545.321V604.641M557.932 545.321H646.112M557.932 545.321V604.641M646.112 545.321H734.292M646.112 545.321V604.641M734.292 545.321H822.472M734.292 545.321V604.641M822.472 545.321H910.651M822.472 545.321V604.641M910.651 545.321H998.831M910.651 545.321V604.641M998.831 545.321H1087.01M998.831 545.321V604.641M1087.01 545.321H1175.19M1087.01 545.321V604.641M1175.19 545.321H1263.37M1175.19 545.321V604.641M1263.37 545.321V604.641M28.8536 604.641H-59.3262M28.8536 604.641H117.033M28.8536 604.641V663.962M-59.3262 604.641V663.962M117.033 604.641H205.213M117.033 604.641V663.962M205.213 604.641H293.393M205.213 604.641V663.962M293.393 604.641H381.573M293.393 604.641V663.962M381.573 604.641H469.753M381.573 604.641V663.962M469.753 604.641H557.932M469.753 604.641V663.962M557.932 604.641H646.112M557.932 604.641V663.962M646.112 604.641H734.292M646.112 604.641V663.962M734.292 604.641H822.472M734.292 604.641V663.962M822.472 604.641H910.651M822.472 604.641V663.962M910.651 604.641H998.831M910.651 604.641V663.962M998.831 604.641H1087.01M998.831 604.641V663.962M1087.01 604.641H1175.19M1087.01 604.641V663.962M1175.19 604.641H1263.37M1175.19 604.641V663.962M1263.37 604.641V663.962M28.8536 663.962H-59.3262M28.8536 663.962H117.033M28.8536 663.962V723.283M-59.3262 663.962V723.283M117.033 663.962H205.213M117.033 663.962V723.283M205.213 663.962H293.393M205.213 663.962V723.283M293.393 663.962H381.573M293.393 663.962V723.283M381.573 663.962H469.753M381.573 663.962V723.283M469.753 663.962H557.932M469.753 663.962V723.283M557.932 663.962H646.112M557.932 663.962V723.283M646.112 663.962H734.292M646.112 663.962V723.283M734.292 663.962H822.472M734.292 663.962V723.283M822.472 663.962H910.651M822.472 663.962V723.283M910.651 663.962H998.831M910.651 663.962V723.283M998.831 663.962H1087.01M998.831 663.962V723.283M1087.01 663.962H1175.19M1087.01 663.962V723.283M1175.19 663.962H1263.37M1175.19 663.962V723.283M1263.37 663.962V723.283M28.8536 723.283H-59.3262M28.8536 723.283H117.033M28.8536 723.283V782.604M-59.3262 723.283V782.604H28.8536M117.033 723.283H205.213M117.033 723.283V782.604M205.213 723.283H293.393M205.213 723.283V782.604M293.393 723.283H381.573M293.393 723.283V782.604M381.573 723.283H469.753M381.573 723.283V782.604M469.753 723.283H557.932M469.753 723.283V782.604M557.932 723.283H646.112M557.932 723.283V782.604M646.112 723.283H734.292M646.112 723.283V782.604M734.292 723.283H822.472M734.292 723.283V782.604M822.472 723.283H910.651M822.472 723.283V782.604M910.651 723.283H998.831M910.651 723.283V782.604M998.831 723.283H1087.01M998.831 723.283V782.604M1087.01 723.283H1175.19M1087.01 723.283V782.604M1175.19 723.283H1263.37M1175.19 723.283V782.604M1263.37 723.283V782.604H1175.19M28.8536 782.604H117.033M117.033 782.604H205.213M205.213 782.604H293.393M293.393 782.604H381.573M381.573 782.604H469.753M469.753 782.604H557.932M557.932 782.604H646.112M646.112 782.604H734.292M734.292 782.604H822.472M822.472 782.604H910.651M910.651 782.604H998.831M998.831 782.604H1087.01M1087.01 782.604H1175.19" stroke="url(#paint5_radial_67_98)" stroke-opacity="0.2"/>
<defs>
<radialGradient id="paint0_radial_67_98" cx="0" cy="0" r="1" gradientUnits="userSpaceOnUse" gradientTransform="translate(250.846 368.767) rotate(91.0518) scale(42.0508 113.357)">
<stop stop-color="white" stop-opacity="0.8"/>
<stop offset="1" stop-color="#05041F"/>
</radialGradient>
<radialGradient id="paint1_radial_67_98" cx="0" cy="0" r="1" gradientUnits="userSpaceOnUse" gradientTransform="translate(602.622 190.207) rotate(90) scale(44.639 120.356)">
<stop stop-color="white" stop-opacity="0.8"/>
<stop offset="1" stop-color="#05041F"/>
</radialGradient>
<radialGradient id="paint2_radial_67_98" cx="0" cy="0" r="1" gradientUnits="userSpaceOnUse" gradientTransform="translate(513.95 544.21) rotate(93.0761) scale(43.1439 116.142)">
<stop stop-color="white" stop-opacity="0.8"/>
<stop offset="1" stop-color="#05041F"/>
</radialGradient>
<radialGradient id="paint3_radial_67_98" cx="0" cy="0" r="1" gradientUnits="userSpaceOnUse" gradientTransform="translate(868.877 427.42) rotate(91.0515) scale(42.0509 113.357)">
<stop stop-color="white" stop-opacity="0.8"/>
<stop offset="1" stop-color="#05041F"/>
</radialGradient>
<radialGradient id="paint4_radial_67_98" cx="0" cy="0" r="1" gradientUnits="userSpaceOnUse" gradientTransform="translate(602.683 367.728) rotate(90) scale(45.6771 123.155)">
<stop stop-color="white" stop-opacity="0.8"/>
<stop offset="1" stop-color="#05041F"/>
</radialGradient>
<radialGradient id="paint5_radial_67_98" cx="0" cy="0" r="1" gradientUnits="userSpaceOnUse" gradientTransform="translate(602.76 338.068) rotate(90) scale(315.068 468.345)">
<stop stop-color="white"/>
<stop offset="1" stop-color="white" stop-opacity="0"/>
</radialGradient>
</defs>
</svg>
